# xmcd CD database file
#
# Track frame offsets:
#	150
#	15854
#	26689
#	39433
#	58069
#	70909
#	83203
#	99073
#	114312
#	126172
#	139877
#	155099
#	170071
#	185738
#	198749
#
# Disc length: 2851 seconds
#
# Revision: 0
# Processed by: cddbd v1.5.2PL0 Copyright (c) Steve Scherf et al.
# Submitted via: CDex 1.78
#
DISCID=cd0b210f
DTITLE=Terry Smith - The Second Time Around
DYEAR=2015
DGENRE=Country
TTITLE0=Terry Smith - Another Southern Son 
TTITLE1=Terry Smith - Going Under, Getting Over You
TTITLE2=Terry Smith - All That I Know 'bout Rodeo 
TTITLE3=Terry Smith - Anybody's Fool 
TTITLE4=Terry Smith - I Can't Find A Train
TTITLE5=Terry Smith - The Next Month Of Sundays 
TTITLE6=Terry Smith - Faded Flower And Misty Cloud  
TTITLE7=Terry Smith - It Doesn't Say 
TTITLE8=Terry Smith - Ten Seconds In The Saddle 
TTITLE9=Terry Smith - I Don't Want To Look If I Can't Buy  
TTITLE10=Terry Smith - Out Of All The One-Night Stands
TTITLE11=Terry Smith - A Few Good Funerals
TTITLE12=Terry Smith - Jeans And Good Leather  
TTITLE13=Terry Smith - Texas On My Mind 
TTITLE14=Terry Smith - Far-Side Banks Of Jordan 
EXTD=YEAR: 2015
EXTT0=
EXTT1=
EXTT2=
EXTT3=
EXTT4=
EXTT5=
EXTT6=
EXTT7=
EXTT8=
EXTT9=
EXTT10=
EXTT11=
EXTT12=
EXTT13=
EXTT14=
PLAYORDER=
